<svg width="999" height="1000" viewBox="0 0 999 1000" fill="none" xmlns="http://www.w3.org/2000/svg">
<path d="M707.75 867.25C772.403 867.25 824.815 814.752 824.815 749.993C824.815 685.234 772.403 632.736 707.75 632.736C643.097 632.736 590.686 685.234 590.686 749.993C590.686 814.752 643.097 867.25 707.75 867.25Z" fill="#624AA7"/>
<path fill-rule="evenodd" clip-rule="evenodd" d="M499.179 1000C774.871 1000 998.362 776.146 998.362 500C998.362 223.854 774.871 0 499.179 0C223.489 0 -0.00195312 223.854 -0.00195312 500C-0.00195312 776.146 223.489 1000 499.179 1000ZM499.179 871.391C294.404 871.391 128.401 705.117 128.401 500C128.401 294.883 294.404 128.609 499.179 128.609C703.955 128.609 869.96 294.883 869.96 500C869.96 559.578 855.956 615.865 831.068 665.76C847.43 689.747 857 718.756 857 750.01C857 832.566 790.178 899.487 707.751 899.487C666.99 899.487 630.047 883.127 603.112 856.591C570.136 866.236 535.258 871.391 499.179 871.391Z" fill="white"/>
</svg>
